<svg width="35" height="40" viewBox="0 0 35 40" fill="none" xmlns="http://www.w3.org/2000/svg">
<g clip-path="url(#clip0)">
<path d="M33.9052 18.7507H20.0514C19.4476 18.7507 18.9576 18.1907 18.9576 17.5007C18.9576 16.8107 19.4476 16.2507 20.0514 16.2507H33.9052C34.5089 16.2507 34.9989 16.8107 34.9989 17.5007C34.9989 18.1907 34.5089 18.7507 33.9052 18.7507Z" fill="black"/>
<path d="M28.4366 25.0004C28.1565 25.0004 27.8766 24.8787 27.6636 24.6339C27.2363 24.1454 27.2363 23.3538 27.6636 22.8655L32.3594 17.4991L27.6636 12.1325C27.2363 11.6442 27.2363 10.8526 27.6636 10.3644C28.0911 9.87578 28.7837 9.87578 29.2109 10.3644L34.6795 16.6142C35.1068 17.1024 35.1068 17.894 34.6795 18.3823L29.2109 24.6321C28.9965 24.8787 28.7167 25.0004 28.4366 25.0004Z" fill="black"/>
<path d="M11.6664 40.0003C11.3542 40.0003 11.0581 39.9503 10.7623 39.8453L1.9861 36.5037C0.791983 36.027 0 34.7554 0 33.334V3.33489C0 1.49657 1.30813 0.0015564 2.91666 0.0015564C3.22854 0.0015564 3.52467 0.0516037 3.8208 0.156581L12.5967 3.49815C13.7911 3.97482 14.5828 5.24645 14.5828 6.66791V36.667C14.5828 38.5053 13.2749 40.0003 11.6664 40.0003ZM2.91666 2.50148C2.5156 2.50148 2.18743 2.87653 2.18743 3.33489V33.334C2.18743 33.6889 2.39597 34.0187 2.69344 34.1371L11.4285 37.4638C11.4912 37.487 11.5729 37.5004 11.6664 37.5004C12.0675 37.5004 12.3954 37.1253 12.3954 36.667V6.66791C12.3954 6.313 12.1868 5.98312 11.8894 5.86472L3.15431 2.5381C3.09156 2.51491 3.00985 2.50148 2.91666 2.50148Z" fill="black"/>
<path d="M22.2388 13.3344C21.6351 13.3344 21.1451 12.7744 21.1451 12.0845V4.5847C21.1451 3.43635 20.3272 2.50133 19.3224 2.50133H2.91671C2.31298 2.50133 1.823 1.94135 1.823 1.25136C1.823 0.561384 2.31298 0.00140381 2.91671 0.00140381H19.3224C21.5347 0.00140381 23.3326 2.05639 23.3326 4.5847V12.0845C23.3326 12.7744 22.8426 13.3344 22.2388 13.3344Z" fill="black"/>
<path d="M19.3224 35.0001H13.4891C12.8854 35.0001 12.3954 34.4401 12.3954 33.7502C12.3954 33.0602 12.8854 32.5002 13.4891 32.5002H19.3224C20.3272 32.5002 21.1451 31.5652 21.1451 30.4168V22.9171C21.1451 22.2271 21.6351 21.6671 22.2388 21.6671C22.8426 21.6671 23.3325 22.2271 23.3325 22.9171V30.4168C23.3325 32.9451 21.5347 35.0001 19.3224 35.0001Z" fill="black"/>
</g>
<defs>
<clipPath id="clip0">
<rect width="35" height="40" fill="white"/>
</clipPath>
</defs>
</svg>
