<svg width="100%" height="auto" viewBox="0 0 222 108" fill="none" xmlns="http://www.w3.org/2000/svg">
  <path d="M16 29.5L65 107L106.5 71.5L147.5 107L210 29.5H171.5L147.5 67.5L113.5 42H100L65 67.5L44.5 29.5H16Z" fill="#706DFF" stroke="white"/>
  <circle cx="107" cy="24" r="14.5" fill="#706DFF" stroke="white"/>
  <line x1="159.662" y1="8.25016" x2="176.662" y2="23.2502" stroke="#706DFF" stroke-width="2"/>
  <line x1="174.904" y1="1.57191" x2="183.904" y2="20.5719" stroke="#706DFF" stroke-width="2"/>
  <line x1="220.659" y1="7.75258" x2="204.659" y2="21.7526" stroke="#706DFF" stroke-width="2"/>
  <line x1="192.135" y1="20.499" x2="203.135" y2="1.49896" stroke="#706DFF" stroke-width="2"/>
  <line x1="159.662" y1="8.25016" x2="176.662" y2="23.2502" stroke="#706DFF" stroke-width="2"/>
  <line x1="174.904" y1="1.57191" x2="183.904" y2="20.5719" stroke="#706DFF" stroke-width="2"/>
  <line x1="220.659" y1="7.75258" x2="204.659" y2="21.7526" stroke="#706DFF" stroke-width="2"/>
  <line x1="192.135" y1="20.499" x2="203.135" y2="1.49896" stroke="#706DFF" stroke-width="2"/>
  <line x1="0.330811" y1="9.62508" x2="17.3308" y2="24.6251" stroke="#706DFF"/>
  <line x1="15.4519" y1="2.78596" x2="24.4519" y2="21.786" stroke="#706DFF"/>
  <line x1="61.3293" y1="8.37629" x2="45.3293" y2="22.3763" stroke="#706DFF"/>
  <line x1="33.5673" y1="21.7495" x2="44.5673" y2="2.74948" stroke="#706DFF"/>
  <line x1="0.330811" y1="9.62508" x2="17.3308" y2="24.6251" stroke="#706DFF"/>
  <line x1="15.4519" y1="2.78596" x2="24.4519" y2="21.786" stroke="#706DFF"/>
  <line x1="61.3293" y1="8.37629" x2="45.3293" y2="22.3763" stroke="#706DFF"/>
  <line x1="33.5673" y1="21.7495" x2="44.5673" y2="2.74948" stroke="#706DFF"/>
</svg>
