<svg width="12" height="12" viewBox="0 0 8 12" fill="none" xmlns="http://www.w3.org/2000/svg">
<path d="M4.00016 11.8941C4.8017 11.8941 5.45148 11.2462 5.45148 10.4471C5.45148 9.64787 4.8017 9 4.00016 9C3.19861 9 2.54883 9.64787 2.54883 10.4471C2.54883 11.2462 3.19861 11.8941 4.00016 11.8941Z" fill="black"/>
<path fill-rule="evenodd" clip-rule="evenodd" d="M0 3.35294L0.141593 2.89412C0.60177 1.12941 2.15929 0 3.9646 0C6.12389 0 8 1.69412 8 3.88236C8 5.64706 6.79646 7.12942 5.13274 7.58824V8.36471H2.83186V6.98824C2.83186 6.21177 3.39823 5.54118 4.17699 5.47059C5.02655 5.36471 5.73451 4.72941 5.73451 3.88236C5.73451 2.92941 4.88496 2.29412 3.9646 2.29412C3.18584 2.29412 2.54867 2.71765 2.33628 3.49412L2.19469 3.95294L0 3.35294Z" fill="black"/>
</svg>
