<svg width="40" height="40" viewBox="0 0 40 40" fill="none" xmlns="http://www.w3.org/2000/svg">
<path d="M19.715 19.2682C22.3621 19.2682 24.6539 18.3188 26.5271 16.4456C28.3997 14.5727 29.3494 12.2812 29.3494 9.63377C29.3494 6.98729 28.4 4.69543 26.5268 2.82195C24.6536 0.9494 22.3618 0 19.715 0C17.0676 0 14.776 0.9494 12.9031 2.82226C11.0303 4.69512 10.0806 6.98699 10.0806 9.63377C10.0806 12.2812 11.0303 14.573 12.9031 16.4459C14.7766 18.3184 17.0685 19.2682 19.715 19.2682ZM14.5609 4.47967C15.9979 3.0426 17.6837 2.34405 19.715 2.34405C21.7459 2.34405 23.432 3.0426 24.8694 4.47967C26.3065 5.91704 27.0053 7.60314 27.0053 9.63377C27.0053 11.665 26.3065 13.3508 24.8694 14.7882C23.432 16.2256 21.7459 16.9241 19.715 16.9241C17.6843 16.9241 15.9985 16.2253 14.5609 14.7882C13.1235 13.3511 12.4246 11.665 12.4246 9.63377C12.4246 7.60314 13.1235 5.91704 14.5609 4.47967Z" fill="black"/>
<path d="M36.5726 30.758C36.5186 29.9786 36.4093 29.1284 36.2485 28.2305C36.0861 27.326 35.8771 26.4709 35.6268 25.6893C35.368 24.8816 35.0168 24.0838 34.5819 23.3194C34.1312 22.5259 33.6014 21.835 33.0069 21.2664C32.3853 20.6717 31.6241 20.1934 30.744 19.8446C29.8669 19.4976 28.895 19.3219 27.8552 19.3219C27.4469 19.3219 27.052 19.4894 26.2894 19.9859C25.82 20.292 25.271 20.646 24.6582 21.0376C24.1342 21.3714 23.4244 21.6842 22.5476 21.9674C21.6922 22.2442 20.8237 22.3846 19.9661 22.3846C19.1092 22.3846 18.2407 22.2442 17.3846 21.9674C16.5088 21.6845 15.7986 21.3717 15.2756 21.0379C14.6686 20.65 14.1193 20.296 13.6429 19.9856C12.8809 19.4891 12.486 19.3216 12.0776 19.3216C11.0376 19.3216 10.0659 19.4976 9.18915 19.8449C8.30963 20.1931 7.54822 20.6714 6.92596 21.2668C6.33148 21.8356 5.8017 22.5262 5.35126 23.3194C4.91699 24.0838 4.56543 24.8812 4.30664 25.6897C4.0567 26.4712 3.84766 27.326 3.6853 28.2305C3.52417 29.1271 3.41522 29.9777 3.36121 30.7589C3.30811 31.5228 3.28125 32.3178 3.28125 33.121C3.28125 35.209 3.94501 36.8993 5.25391 38.146C6.54663 39.3762 8.25684 39.9999 10.3372 39.9999H29.5975C31.6772 39.9999 33.3875 39.3762 34.6805 38.146C35.9897 36.9003 36.6534 35.2093 36.6534 33.1207C36.6531 32.3147 36.626 31.5197 36.5726 30.758ZM33.0643 36.4477C32.2101 37.2607 31.076 37.6559 29.5972 37.6559H10.3372C8.85803 37.6559 7.724 37.2607 6.87012 36.448C6.03241 35.6506 5.62531 34.562 5.62531 33.121C5.62531 32.3715 5.65002 31.6314 5.69946 30.921C5.74768 30.2239 5.84625 29.4583 5.99243 28.6447C6.13678 27.8411 6.3205 27.0871 6.539 26.4044C6.74866 25.7498 7.03461 25.1016 7.38922 24.4772C7.72766 23.8821 8.11707 23.3715 8.54675 22.9602C8.94867 22.5753 9.45526 22.2604 10.0522 22.0242C10.6042 21.8057 11.2247 21.6861 11.8982 21.6681C11.9803 21.7117 12.1265 21.795 12.3633 21.9494C12.8452 22.2635 13.4006 22.6217 14.0146 23.0139C14.7067 23.4552 15.5984 23.8537 16.6638 24.1977C17.753 24.5498 18.8638 24.7287 19.9664 24.7287C21.069 24.7287 22.1802 24.5498 23.2687 24.198C24.335 23.8534 25.2264 23.4552 25.9195 23.0133C26.5479 22.6117 27.0877 22.2638 27.5696 21.9494C27.8064 21.7953 27.9526 21.7117 28.0347 21.6681C28.7085 21.6861 29.3289 21.8057 29.8813 22.0242C30.4779 22.2604 30.9845 22.5756 31.3864 22.9602C31.8161 23.3712 32.2055 23.8818 32.5439 24.4775C32.8989 25.1016 33.1851 25.7501 33.3945 26.4041C33.6133 27.0877 33.7973 27.8414 33.9413 28.6444C34.0872 29.4595 34.1861 30.2255 34.2343 30.9213V30.9219C34.2841 31.6296 34.3091 32.3693 34.3094 33.121C34.3091 34.5623 33.902 35.6506 33.0643 36.4477Z" fill="black"/>
</svg>
